<?xml version="1.0" encoding="UTF-8"?><svg xmlns="http://www.w3.org/2000/svg" xmlns:xlink="http://www.w3.org/1999/xlink" id="Layer_1" x="0px" y="0px" viewBox="0 0 1024 1024" xml:space="preserve"> <circle id="XMLID_1_" fill="#4353A2" cx="512" cy="512" r="512"></circle> <g> <path fill="#FDFDFD" d="M640.2,812c-22.1-0.1-43.9-3-65-9.5c-40-12.2-80-12.5-120.7-3.7c-34.6,7.6-69.8,9.9-105,5.6 c-31-3.7-52.7-21.9-66.6-49.4c-25.5-50.3-16.2-101.1,25.9-140.8c19.8-18.7,42.1-34.6,62.1-53.2c20.3-18.8,38.3-39.4,52.9-63 c27.3-43.9,82.3-60.5,125-38c17,8.9,30.7,21.8,41.4,37.6c32.5,48.1,73.4,88.3,118.3,124.4c38.6,31.1,47.6,70.5,35.9,116.5 c-7,27.6-20.6,50.4-47.7,62.7C678.7,809.6,659.7,812,640.2,812z M490,652.7c0-32.6,0-65.1,0-97.7c0-3.3,0.9-7-4.7-6.9 c-9.8,0.1-19.6-0.1-29.4-0.6c-4.7-0.2-5.8,1.8-5.7,6.1c0.2,11.4,0.1,22.8,0.1,34.2c0,16,0,15.8-16.2,16.1 c-14,0.2-28.1-1.7-41.8,2.9c-36.6,12.3-57.3,49.7-49.8,90.1c6.9,36.8,34.9,60,72.5,60c22.2,0,44.5-0.2,66.7,0.2 c6.5,0.1,8.6-1.4,8.5-8.2C489.8,716.8,490,684.7,490,652.7z M650.3,683c0-22.3-0.2-44.5,0.2-66.8c0.1-6.1-1.7-7.7-7.6-7.4 c-9.2,0.5-18.6,0.5-27.8,0c-6.3-0.4-7.9,1.6-7.9,7.8c0.3,32,0.1,64.1,0.2,96.2c0,4.5-0.7,6.7-6,6.5c-10.8-0.4-21.7,0.1-32.6-0.2 c-11.5-0.3-17.4-6.6-17.4-17.9c0-27.8-0.2-55.6,0.1-83.4c0.1-7-1.4-10.1-9-9.4c-8.1,0.8-16.4,0.9-24.6,0.5 c-6.1-0.3-7.5,1.8-7.5,7.6c0.3,31.5,0.1,63,0.1,94.6c0,24.3,20.2,45,44.8,45.2c29.4,0.3,58.8,0,88.2,0.2c5.2,0,6.8-1.4,6.7-6.7 C650.1,727.5,650.3,705.2,650.3,683z"></path> <path fill="#FDFDFD" d="M791.1,476.2c-0.2,18.1-1.3,31.8-5.5,45c-7.8,24.5-23.9,39.4-49.7,42.8c-15.1,2-30.1,1-44.7-3.7 c-20.5-6.6-32.8-21.2-37.2-41.7c-5.9-27.2-5.5-54.7,0.9-81.8c5.9-24.7,19.4-43.1,45.7-48.1c28.6-5.5,53.6,1.5,72.2,25.3 C788,433.5,792.7,456.2,791.1,476.2z"></path> <path fill="#FDFDFD" d="M373,430.2c-0.2,23.1-2.1,40.3-9.7,56.5c-11.2,23.7-30.7,35.7-56.2,38.3c-25.4,2.6-44.9-7.8-58.7-28.7 c-21.1-31.9-21.3-66-9.3-101.1c3.4-10,8-19.6,14.2-28.2c18.7-25.9,50.3-32.5,77.1-14.8C360.2,371.7,374.3,399.9,373,430.2z"></path> <path fill="#FDFDFD" d="M540.3,318.9c-0.1-38.8,18-68.4,47.9-91.3c22.7-17.4,48-12.9,69.7,10.7c40.4,43.9,31.1,115-18.6,148.6 c-30.9,20.9-88,12.3-97.1-44.2C540.9,334.8,540.3,326.9,540.3,318.9z"></path> <path fill="#FDFDFD" d="M505.5,296.1c-0.4,24.7-5.8,47.9-20.3,68.2c-20.3,28.3-52.1,34.6-77.3,15.5c-5.3-4-9.9-8.8-13.9-14.1 c-28.1-37.3-28.6-99.5-1.1-137.4c25.8-35.5,67.2-35.3,92.7,0.4C499.8,249,505,271.9,505.5,296.1z"></path> <path fill="#4353A2" d="M490,652.7c0,32-0.2,64.1,0.2,96.1c0.1,6.8-2,8.3-8.5,8.2c-22.2-0.4-44.5-0.2-66.7-0.2 c-37.6,0-65.6-23.2-72.5-60c-7.5-40.4,13.2-77.8,49.8-90.1c13.7-4.6,27.8-2.7,41.8-2.9c16.2-0.3,16.2-0.1,16.2-16.1 c0-11.4,0.1-22.8-0.1-34.2c-0.1-4.3,1-6.3,5.7-6.1c9.8,0.4,19.6,0.7,29.4,0.6c5.7-0.1,4.7,3.6,4.7,6.9 C490,587.5,490,620.1,490,652.7z M450,680.2c0-12.2-0.2-24.4,0.1-36.5c0.1-4.4-1-6.1-5.7-5.9c-7.9,0.4-15.9,0.5-23.8,0 c-10.1-0.7-17.9,3.7-24.9,10.2c-10.5,9.8-13.4,22.7-13,36.2c0.7,20.8,15.6,37.4,33.5,38c9.5,0.3,19.1-0.2,28.6,0.2 c4.3,0.1,5.3-1.5,5.3-5.5C449.9,704.6,450,692.4,450,680.2z"></path> <path fill="#4353A2" d="M650.3,683c0,22.3-0.2,44.5,0.1,66.8c0.1,5.3-1.5,6.7-6.7,6.7c-29.4-0.2-58.8,0.1-88.2-0.2 c-24.6-0.2-44.8-20.9-44.8-45.2c0-31.5,0.1-63-0.1-94.6c-0.1-5.9,1.4-7.9,7.5-7.6c8.2,0.4,16.4,0.3,24.6-0.5c7.6-0.7,9.1,2.4,9,9.4 c-0.4,27.8-0.2,55.6-0.1,83.4c0,11.3,5.9,17.6,17.4,17.9c10.9,0.3,21.7-0.2,32.6,0.2c5.3,0.2,6-1.9,6-6.5 c-0.2-32.1,0.1-64.1-0.2-96.2c-0.1-6.3,1.6-8.2,7.9-7.8c9.2,0.5,18.6,0.5,27.8,0c5.8-0.3,7.7,1.2,7.6,7.4 C650.1,638.5,650.3,660.7,650.3,683z"></path> <path fill="#FDFDFE" d="M450,680.2c0,12.2-0.1,24.4,0.1,36.5c0.1,4-0.9,5.6-5.3,5.5c-9.5-0.3-19.1,0.2-28.6-0.2 c-17.8-0.6-32.8-17.1-33.5-38c-0.4-13.5,2.5-26.4,13-36.2c7-6.5,14.7-10.8,24.9-10.2c7.9,0.5,15.9,0.4,23.8,0 c4.7-0.2,5.8,1.5,5.7,5.9C449.8,655.9,450,668,450,680.2z"></path> </g> </svg> 