<svg xmlns="http://www.w3.org/2000/svg" viewBox="0 0 512 512">
	<path fill="#111111" d="M256,0C114.5,0,0,114.5,0,256s114.5,256,256,256s256-114.5,256-256S397.5,0,256,0z
		 M147.1,283.9c-21.4,0-44.7,0-44.7,0l12.1-55.9c0,0,31.7,0,42.8,0c27.9,0,34.4,14,34.4,24.2C190.8,268.1,181.5,283.9,147.1,283.9z
		 M162,200.1c-21.4,0-44.7,0-44.7,0l12.1-55.9c0,0,31.7,0,42.8,0c27.9,0,34.4,14,34.4,24.2C206.7,183.4,196.4,200.1,162,200.1z
		 M244.8,371.4c-21.4,0-44.7,0-44.7,0l12.1-55.9c0,0,31.7,0,42.8,0c27.9,0,34.4,14,34.4,24.2C289.5,355.6,279.3,371.4,244.8,371.4z
		 M261.6,283.9c-21.4,0-44.7,0-44.7,0l12.1-55.9c0,0,30.7,0,42.8,0c27.9,0,34.4,14,34.4,24.2C305.3,268.1,296,283.9,261.6,283.9z
		 M276.5,200.1c-21.4,0-44.7,0-44.7,0l12.1-55.9c0,0,31.7,0,42.8,0c27.9,0,34.4,14,34.4,24.2C321.2,183.4,310.9,200.1,276.5,200.1z
		 M364.9,337.9c-21.4,0-44.7,0-44.7,0l12.1-55.9c0,0,31.7,0,42.8,0c27.9,0,34.4,14,34.4,24.2C408.7,321.2,399.4,337.9,364.9,337.9z
		 M380.7,250.4c-21.4,0-44.7,0-44.7,0l12.1-55.9c0,0,30.7,0,42.8,0c27.9,0,34.4,14,34.4,24.2C425.4,233.7,416.1,250.4,380.7,250.4z"
		/>
</svg>
