<svg version="1.1" viewBox="0 0 150 180" xmlns="http://www.w3.org/2000/svg"><path d="m112.6 59.129c13.496 0 24.436-10.94 24.436-24.436s-10.94-24.437-24.436-24.437c-13.496 0-24.437 10.941-24.437 24.437s10.941 24.436 24.437 24.436m-23.676 7.8733c-5.7494-8.2107-17.067-10.207-25.277-4.456-8.2111 5.748-10.206 17.065-4.4575 25.276l51.943 74.181c5.7493 8.2109 17.065 10.205 25.277 4.4573 8.2107-5.7505 10.207-17.067 4.4573-25.277l-51.943-74.181m-61.285-56.747c-10.223 0-18.51 8.2867-18.51 18.509v122.47c0 10.223 8.2869 18.511 18.51 18.511s18.51-8.288 18.51-18.511v-122.47c0-10.223-8.2869-18.509-18.51-18.509" fill="#6f02b5"/></svg>