<svg xmlns="http://www.w3.org/2000/svg" viewBox="0 0 140 140" width="558" height="558"><circle r="70" cy="70" cx="70" fill="#ffd539"/><path d="M96.237 26.318l.925-.226.91 1.114-.185.784a12.29 12.29 0 00-2.162.6l.512-2.272zm-19.69 21.105c-6.302 9.997-9.774 20.335-8.757 25.915 11.828 1.932 22.767 1.54 32.768-.708 7.74-1.74 14.343-4.449 19.74-7.613 1.122-.659 2.17-1.494 2.798-2.2-5.821-1.167-13.625-5.244-19.117-10.609-6.738-6.581-9.899-14.623-8.254-23.619-5.999 2.231-13.18 9.32-19.178 18.834zm21.891-21.525c-6.47 21.189 16.462 33.474 25.527 35.047 3.637.631.452 3.975-2.656 5.797-8.339 4.89-27.452 13.232-55.129 8.351-4.265-12.543 16.646-47.69 32.258-49.195z"/><g fill-rule="evenodd"><path d="M91.911 53.26a4 4 0 103.072-3.072 2.5 2.5 0 11-3.072 3.073zm28.912 11.84a6 6 0 10-6-6c4.056 2.935 9.922 2.342 6 6zm-54.409 64.576c1.38-15.783-3.734-22.945-12.801-37.257s-5.2-40.608 19.425-38.454c39.868 3.488 24.058 62.492-6.624 75.711z"/><path d="M45.323 123.741c6.946-14.24 4.738-22.76 1.401-39.37s9.699-39.774 31.916-28.938c35.97 17.544.065 66.963-33.316 68.308z"/><path d="M27.81 110.703c11.587-10.805 12.578-19.55 15.416-36.253s23.308-33.657 40.167-15.58c27.293 29.27-23.937 62.539-55.583 51.832z"/><path d="M16.005 92.395c14.69-5.935 18.75-13.744 27.385-28.321s33.82-23.069 43.08-.15c14.993 37.108-44.757 49.808-70.464 28.471z"/><path d="M11.707 70.833c15.84-.277 22.429-6.112 35.715-16.626s39.842-9.416 40.273 15.3c.698 40.013-59.635 30.457-75.988 1.325z"/><path d="M15.18 49.3c14.887 5.418 23.13 2.332 39.301-2.723s40.57 5.488 32.115 28.716C72.909 112.9 20.007 82.357 15.18 49.3z"/><path d="M26.403 30.485c11.959 10.394 20.76 10.465 37.668 11.542S99.979 61.69 83.763 80.345c-26.257 30.204-64.7-17.268-57.36-49.86z"/><path d="M43.395 16.817c7.438 13.988 15.629 17.21 31.028 24.273s26.478 31.225 4.652 42.83c-35.336 18.789-54.212-39.306-35.68-67.103z"/><path d="M64.342 10.278c1.93 15.725 8.423 21.668 20.268 33.782s13.529 38.639-11.007 41.652c-39.721 4.877-36.524-56.124-9.261-75.434z"/><path d="M86.119 11.685c-3.833 15.373.098 23.247 6.815 38.802s-1.216 40.921-25.201 34.94c-38.832-9.68-13.986-65.485 18.386-73.742z"/><path d="M106.059 20.72c-21.438 16.255-9.131 27.992-9.131 59.054 0 28.443-14.212 17.38-34.46 3.202-32.783-22.955 10.41-66.148 43.591-62.255z"/></g><path d="M96.826 72.485c-.067-.438-.187-1.767-.267-2.953-.13-1.944-.86-8.255-1.21-10.457l-.138-.866 1.122-.127c3.018-.34 4.596-3.934 2.807-6.394-.589-.809-2.35-1.697-3.367-1.697h-.805l.856.808c.633.597.856 1.006.856 1.57 0 1.021-.547 2.022-1.291 2.361-.574.262-.616.233-.744-.492-1.013-5.76-1.338-12.578-.758-15.875.209-1.187.591-2.752.85-3.477l.47-1.318.02 1.078c.012.594.223 2.05.469 3.237 1.634 7.875 6.989 14.764 15.61 20.083 2.289 1.412 6.323 3.333 8.594 4.093.968.323 1.862.69 1.985.813.412.412-.06 1.001-1.562 1.95-4.592 2.9-11.976 5.816-18.847 7.444-4.89 1.158-4.509 1.14-4.65.219z" fill="#fff"/></svg>